<svg version="1.1" id="Layer_1" xmlns="http://www.w3.org/2000/svg" xmlns:xlink="http://www.w3.org/1999/xlink" x="0px" y="0px"
	 width="100%" viewBox="0 0 254 102" enable-background="new 0 0 254 102" xml:space="preserve">
<path fill="#0A0B0F" opacity="1.000000" stroke="none" 
	d="
M170.000000,103.000000 
	C113.333336,103.000000 57.166672,103.000000 1.000008,103.000000 
	C1.000005,69.000008 1.000005,35.000011 1.000003,1.000008 
	C43.333324,1.000000 85.666649,1.000000 127.999977,1.000000 
	C170.333313,1.000000 212.666641,1.000000 254.999969,1.000000 
	C254.999985,34.999989 254.999985,68.999977 255.000000,102.999985 
	C226.833328,103.000000 198.666672,103.000000 170.000000,103.000000 
M137.357727,72.944168 
	C137.357727,66.776810 137.357727,60.609459 137.357727,54.042149 
	C142.945816,59.356441 148.140762,63.594765 152.443069,68.600334 
	C156.193817,72.964211 160.360489,73.899597 165.850998,74.246635 
	C174.049759,74.764839 180.105820,72.595703 185.178680,66.005272 
	C188.503845,61.685406 193.015549,58.278843 197.662292,53.824337 
	C197.662292,61.024235 197.662292,67.298500 197.662292,73.733040 
	C203.151749,73.733040 208.214584,73.733040 213.387726,73.733040 
	C213.387726,60.062939 213.387726,46.670956 213.387726,33.011642 
	C210.062027,33.011642 207.034164,33.321777 204.095734,32.941284 
	C199.303558,32.320751 196.226166,34.419380 192.902145,37.679939 
	C184.229874,46.186680 175.057785,54.183880 167.809738,60.808018 
	C159.536636,53.325974 149.912506,44.581497 140.224106,35.908806 
	C138.938446,34.757931 137.381729,33.269665 135.854584,33.148666 
	C131.252548,32.784039 126.603165,33.017120 121.722687,33.017120 
	C121.722687,46.838764 121.722687,60.251965 121.722687,73.737450 
	C126.968834,73.737450 131.933716,73.737450 137.357727,72.944168 
M39.439529,65.409622 
	C39.439529,68.189400 39.439529,70.969185 39.439529,73.834732 
	C45.035625,73.834732 49.996613,73.834732 55.493050,73.834732 
	C55.493050,65.937248 55.493050,58.196247 55.493050,49.600403 
	C67.450317,56.509335 78.971878,62.457920 89.696754,69.602425 
	C97.361862,74.708633 105.194817,74.130722 113.475922,73.782211 
	C113.475922,60.050274 113.475922,46.670761 113.475922,33.396126 
	C108.061951,33.396126 103.003441,33.396126 97.525940,33.396126 
	C97.525940,41.502666 97.525940,49.226727 97.525940,57.607529 
	C95.491035,56.494797 94.055489,55.758446 92.666672,54.942554 
	C82.918251,49.215626 72.794235,44.023045 63.557701,37.562496 
	C55.967033,32.253166 48.108185,32.897312 39.439568,33.250233 
	C39.439568,43.841793 39.439568,54.136230 39.439529,65.409622 
z"/>
<path fill="#84F7B2" opacity="1.000000" stroke="none" 
	d="
M137.128159,73.340805 
	C131.933716,73.737450 126.968834,73.737450 121.722687,73.737450 
	C121.722687,60.251965 121.722687,46.838764 121.722687,33.017120 
	C126.603165,33.017120 131.252548,32.784039 135.854584,33.148666 
	C137.381729,33.269665 138.938446,34.757931 140.224106,35.908806 
	C149.912506,44.581497 159.536636,53.325974 167.809738,60.808018 
	C175.057785,54.183880 184.229874,46.186680 192.902145,37.679939 
	C196.226166,34.419380 199.303558,32.320751 204.095734,32.941284 
	C207.034164,33.321777 210.062027,33.011642 213.387726,33.011642 
	C213.387726,46.670956 213.387726,60.062939 213.387726,73.733040 
	C208.214584,73.733040 203.151749,73.733040 197.662292,73.733040 
	C197.662292,67.298500 197.662292,61.024235 197.662292,53.824337 
	C193.015549,58.278843 188.503845,61.685406 185.178680,66.005272 
	C180.105820,72.595703 174.049759,74.764839 165.850998,74.246635 
	C160.360489,73.899597 156.193817,72.964211 152.443069,68.600334 
	C148.140762,63.594765 142.945816,59.356441 137.357727,54.042149 
	C137.357727,60.609459 137.357727,66.776810 137.128159,73.340805 
z"/>
<path fill="#84F7B2" opacity="1.000000" stroke="none" 
	d="
M39.439548,64.920143 
	C39.439568,54.136230 39.439568,43.841793 39.439568,33.250233 
	C48.108185,32.897312 55.967033,32.253166 63.557701,37.562496 
	C72.794235,44.023045 82.918251,49.215626 92.666672,54.942554 
	C94.055489,55.758446 95.491035,56.494797 97.525940,57.607529 
	C97.525940,49.226727 97.525940,41.502666 97.525940,33.396126 
	C103.003441,33.396126 108.061951,33.396126 113.475922,33.396126 
	C113.475922,46.670761 113.475922,60.050274 113.475922,73.782211 
	C105.194817,74.130722 97.361862,74.708633 89.696754,69.602425 
	C78.971878,62.457920 67.450317,56.509335 55.493050,49.600403 
	C55.493050,58.196247 55.493050,65.937248 55.493050,73.834732 
	C49.996613,73.834732 45.035625,73.834732 39.439529,73.834732 
	C39.439529,70.969185 39.439529,68.189400 39.439548,64.920143 
z"/>
</svg>